<?xml version="1.0" encoding="UTF-8"?>
<svg version="1.1" xmlns="http://www.w3.org/2000/svg" width="512" height="512">
<path d="M0 0 C5.51748064 4.29605363 10.46580354 9.02156929 15.30859375 14.0546875 C16.63958996 15.39035387 17.97232033 16.72430075 19.30859375 18.0546875 C20.01242187 17.23226562 20.71625 16.40984375 21.44140625 15.5625 C36.5558015 -1.69106765 56.11687446 -14.03615193 79.30859375 -16.9453125 C107.19554789 -18.48952377 130.45691543 -13.41555149 151.83496094 5.39794922 C161.92026145 14.46966756 169.35632705 24.49116622 173.93359375 37.3046875 C175.20343843 40.56099887 175.20343843 40.56099887 177.30859375 43.0546875 C181.61345577 44.51611667 185.75975187 44.64077869 190.27539062 44.86181641 C207.53077852 46.49867477 224.27666428 58.63482881 235.12109375 71.4921875 C249.8208942 90.41064725 254.76153427 111.78707773 252.03613281 135.41699219 C249.64952899 150.16255292 242.33998925 164.10764739 232.30859375 175.0546875 C231.74527344 175.68632812 231.18195313 176.31796875 230.6015625 176.96875 C217.71796869 190.66699729 198.32932426 199.51217015 179.53351879 200.14866114 C176.06053864 200.18973575 172.58882673 200.19754547 169.11560059 200.19512939 C167.76731421 200.19771583 166.4190286 200.20072976 165.07074404 200.2041328 C161.3757986 200.21217355 157.68087262 200.21399073 153.98591948 200.21473026 C149.99661969 200.21658596 146.00732988 200.22413595 142.01803589 200.23086548 C133.29871444 200.2444292 124.57939761 200.25047065 115.86006737 200.25487614 C110.41098814 200.25764225 104.96191068 200.26188031 99.51283264 200.26638031 C84.41295229 200.27857112 69.31307334 200.28887035 54.21318817 200.2922554 C53.24733096 200.29247497 52.28147375 200.29269453 51.28634813 200.29292075 C50.31823378 200.29313903 49.35011943 200.29335731 48.35266829 200.2935822 C46.39103667 200.29402566 44.42940505 200.29447222 42.46777344 200.29492188 C41.49474496 200.2951433 40.52171648 200.29536473 39.51920229 200.29559287 C23.76436789 200.2995381 8.00957982 200.31698454 -7.74523669 200.3402814 C-23.93748026 200.3640309 -40.12970062 200.37645891 -56.32196188 200.37762332 C-65.40638344 200.37853813 -74.49074466 200.38424141 -83.57514954 200.40244293 C-91.31317835 200.41789265 -99.05112817 200.42293582 -106.78916949 200.41470483 C-110.73230482 200.41081531 -114.67528129 200.41164409 -118.61839676 200.42576218 C-122.23842175 200.43860407 -125.8581702 200.43721476 -129.47819537 200.42517146 C-131.38648803 200.42232353 -133.29478594 200.43407184 -135.20303965 200.44659352 C-158.85250381 200.3131752 -178.98032045 191.90739267 -195.69140625 175.0546875 C-210.48464274 159.46993098 -216.36727521 139.65588945 -216.16235352 118.56445312 C-215.48639359 96.94807954 -206.10211723 77.54220077 -190.37890625 62.7421875 C-179.55676097 53.72690303 -162.79284714 43.04478308 -147.9765625 44.28125 C-144.68637856 44.45275479 -142.71962591 44.40504915 -139.69140625 43.0546875 C-136.67568254 38.63409075 -134.68308222 33.94589944 -132.59130859 29.03857422 C-123.98011817 10.05470733 -104.47600914 -4.50761136 -85.61328125 -11.91796875 C-56.58563749 -22.12421248 -25.03148002 -18.09241952 0 0 Z " fill="#8FD3F6" transform="translate(237.69140625,72.9453125)"/>
<path d="M0 0 C13.10882874 10.50502029 23.6000878 22.00877201 29.3125 38 C30.58234468 41.25631137 30.58234468 41.25631137 32.6875 43.75 C36.99236202 45.21142917 41.13865812 45.33609119 45.65429688 45.55712891 C62.90968477 47.19398727 79.65557053 59.33014131 90.5 72.1875 C105.19980045 91.10595975 110.14044052 112.48239023 107.41503906 136.11230469 C105.02843524 150.85786542 97.7188955 164.80295989 87.6875 175.75 C87.12417969 176.38164062 86.56085938 177.01328125 85.98046875 177.6640625 C72.92780187 191.54207366 53.49869763 200.13679041 34.51479435 200.87304783 C32.88736884 200.87166514 32.88736884 200.87166514 31.22706604 200.87025452 C29.97214859 200.87162918 28.71723114 200.87300385 27.42428589 200.87442017 C26.0518186 200.87088198 24.67935157 200.86724718 23.30688477 200.86352539 C21.84774274 200.86324303 20.38860057 200.86340221 18.92945862 200.8639679 C14.98370543 200.86425395 11.03798285 200.85838827 7.09223676 200.85139394 C2.96293625 200.84512842 -1.16636502 200.84455407 -5.29566956 200.84336853 C-13.10820556 200.84026463 -20.92072752 200.83206395 -28.73325735 200.82201904 C-37.63046733 200.81082864 -46.52767799 200.80534008 -55.42489326 200.80032361 C-73.72077013 200.78988054 -92.01663393 200.77229936 -110.3125 200.75 C-110.3125 200.42 -110.3125 200.09 -110.3125 199.75 C-109.39210938 199.59144531 -108.47171875 199.43289063 -107.5234375 199.26953125 C-85.14267846 195.1443608 -66.13814002 186.14115938 -52.6015625 167.19921875 C-40.19139609 148.95658465 -36.20580885 127.93925364 -39.72412109 106.20751953 C-40.77343179 101.51142411 -42.3926283 97.16722459 -44.3125 92.75 C-44.77011719 91.6671875 -45.22773438 90.584375 -45.69921875 89.46875 C-48.9542654 82.40574466 -53.13931991 76.53178951 -58.3125 70.75 C-59.01375 69.96625 -59.715 69.1825 -60.4375 68.375 C-74.63200297 53.36938257 -93.98270802 46.08084417 -114.3125 44.75 C-114.60382813 43.99976563 -114.89515625 43.24953125 -115.1953125 42.4765625 C-117.70860417 36.20123676 -120.44150969 30.58190954 -124.2734375 25.00390625 C-125.3125 22.75 -125.3125 22.75 -125.26953125 20.3203125 C-120.10462373 6.44884659 -101.44996686 -3.76206537 -88.84375 -9.78125 C-59.59636305 -21.94609236 -25.7238967 -18.45555609 0 0 Z " fill="#47C1F0" transform="translate(382.3125,72.25)"/>
<path d="M0 0 C1.85063771 0.96513049 3.70422833 1.92465102 5.5625 2.875 C6.26503906 3.24367188 6.96757812 3.61234375 7.69140625 3.9921875 C17.88500117 8.44218325 32.71238383 9.15209991 43.29296875 5.31640625 C48.06514215 2.99573896 52.64926061 0.33220026 57.25708008 -2.29638672 C74.98261878 -12.31187906 94.23429388 -13.82758039 114 -10 C123.00122742 -7.47392024 131.14638748 -2.9767882 139.29003906 1.52148438 C150.77972228 7.79910399 163.22561702 8.73436453 176.08203125 6.453125 C181.29047575 4.71424274 185.99665092 1.93674058 190.81640625 -0.65698242 C191.64011719 -1.10017822 192.46382812 -1.54337402 193.3125 -2 C194.13363281 -2.44384033 194.95476562 -2.88768066 195.80078125 -3.3449707 C205.68376732 -8.58698639 215.76436307 -11.5567416 227 -12 C227.69996094 -12.03996094 228.39992188 -12.07992188 229.12109375 -12.12109375 C245.75791984 -12.64004062 260.17048125 -7.39535557 274.31762695 0.82666016 C281.37390401 4.88408385 287.61701107 6.76675247 295.73144531 7.65185547 C306.83170548 8.87895244 306.83170548 8.87895244 311 14 C313.25175486 17.62238826 313.26996011 20.79678124 312.6171875 25 C311.54425791 28.47683513 309.55676079 30.44323921 307 33 C299.03870819 36.9806459 284.4699946 34.0445873 276.4375 31.67578125 C269.72702041 29.36401483 263.59088295 25.69405047 257.38208008 22.30273438 C249.97187035 18.31961521 243.46416848 15.7673235 235 15 C234.25105469 14.92652344 233.50210937 14.85304688 232.73046875 14.77734375 C230.45275422 14.63163821 230.45275422 14.63163821 227 15 C226.29359375 15.05800781 225.5871875 15.11601562 224.859375 15.17578125 C216.82732578 16.27952311 210.05358259 20.27495918 202.96777344 23.97607422 C183.92643501 33.88418506 162.27459029 38.13440553 141.06640625 32.17578125 C133.29197559 29.19475752 126.01284378 25.17283129 118.703125 21.21484375 C105.94051954 14.4863717 92.95740855 13.19006285 79.03173828 17.25390625 C74.32640073 18.98179757 70.07745982 21.68777029 65.77319336 24.22387695 C48.11177576 34.49785797 26.34170314 37.24476688 6.375 32.75 C-1.41836771 30.31733698 -8.42464251 26.18874427 -15.57128906 22.30053711 C-24.67416996 17.42788076 -32.69783648 15.39001214 -43 14.625 C-47.7224227 14.17650175 -49.81288883 12.49804885 -53 9 C-55.29400575 4.41198851 -55.32093039 0.93147347 -54 -4 C-42.28250902 -21.7436292 -14.39117033 -7.62998459 0 0 Z " fill="#46C1F0" transform="translate(127,422)"/>
<path d="M0 0 C2.50294847 1.32477099 5.02384793 2.61229403 7.55078125 3.890625 C8.288125 4.27089844 9.02546875 4.65117187 9.78515625 5.04296875 C18.62947916 9.03662619 33.38202648 8.6309297 42.42578125 5.578125 C46.6082676 3.72958572 50.58832962 1.46197345 54.61376953 -0.70385742 C55.4386084 -1.14705322 56.26344727 -1.59024902 57.11328125 -2.046875 C57.93812012 -2.49071533 58.76295898 -2.93455566 59.61279297 -3.3918457 C77.86596101 -13.04097847 98.76346287 -14.35135644 118.55078125 -8.609375 C125.45732497 -6.10227081 131.89974906 -2.45924348 138.32910156 1.06811523 C150.37690564 7.62605114 162.71977392 8.6737093 176.2109375 6.37109375 C182.94785672 4.34167792 188.83084033 0.75173244 194.88208008 -2.75195312 C211.85792584 -12.48366487 231.73925114 -13.92756993 250.73828125 -9.984375 C259.58950814 -7.55415927 267.89758678 -2.92204663 275.78515625 1.703125 C282.95629418 5.75461535 289.65693473 7.01075121 297.77246094 7.75317383 C303.70285826 8.38774263 306.61130557 9.65184228 310.80078125 13.953125 C313.05253611 17.57551326 313.07074136 20.74990624 312.41796875 24.953125 C311.34503916 28.42996013 309.35754204 30.39636421 306.80078125 32.953125 C298.7861035 36.96046388 284.09836065 34.03455702 276.0078125 31.6328125 C269.32676592 29.16080867 263.05982959 25.62123127 256.83129883 22.19433594 C244.17507991 15.24292536 230.97531944 12.93276832 216.80078125 16.953125 C211.94520518 18.94095348 207.34147675 21.44814073 202.72460938 23.92919922 C199.86778908 25.44969469 196.97123957 26.87176989 194.05078125 28.265625 C193.1278125 28.71550781 192.20484375 29.16539062 191.25390625 29.62890625 C181.80382261 33.25286366 172.87956063 34.43585542 162.80078125 34.328125 C161.71539062 34.33972656 160.63 34.35132813 159.51171875 34.36328125 C148.74737075 34.3247454 139.15482718 32.19881984 129.67578125 27.078125 C128.9998291 26.72733887 128.32387695 26.37655273 127.62744141 26.01513672 C126.2906904 25.32107288 124.95641673 24.62221113 123.625 23.91796875 C121.15512747 22.6116336 118.66879878 21.33965194 116.17578125 20.078125 C115.10457031 19.52511719 115.10457031 19.52511719 114.01171875 18.9609375 C103.34961819 14.10082806 91.00674588 13.74598807 79.80078125 16.953125 C74.26867565 19.20420632 69.03444514 22.09058114 63.80078125 24.953125 C45.87622039 34.69662116 25.64569719 37.25713861 5.61328125 32.390625 C-2.73420203 29.73033472 -10.51276926 25.72502772 -18.0390625 21.2734375 C-25.27203146 17.19538207 -31.99020627 15.90103126 -40.17041016 15.15332031 C-46.09440266 14.51898026 -49.03807023 13.28411631 -53.19921875 8.953125 C-55.4932245 4.36511351 -55.52014914 0.88459847 -54.19921875 -4.046875 C-51.88685241 -7.65144607 -50.11396933 -9.5992311 -46.26171875 -11.484375 C-30.10015716 -14.8776033 -13.89022466 -7.35531245 0 0 Z " fill="#46C1F0" transform="translate(127.19921875,364.046875)"/>
<path d="M0 0 C1.19157715 0.01921509 1.19157715 0.01921509 2.40722656 0.03881836 C16.91438384 0.52712359 29.15030999 6.04863838 41.60546875 13.21484375 C52.33070929 19.13471336 64.21079713 20.82399411 76.28125 18.5234375 C82.45617057 16.63345013 88.03047999 13.57129906 93.70117188 10.52392578 C96.55799217 9.00343031 99.45454168 7.58135511 102.375 6.1875 C103.29796875 5.73761719 104.2209375 5.28773438 105.171875 4.82421875 C121.24642649 -1.34011717 143.22773782 -2.98386155 159.51318359 3.54785156 C165.34115436 6.17549156 170.99643748 9.17973335 176.59643555 12.25878906 C189.43360397 19.31443306 202.22784761 21.298206 216.625 17.5 C222.18245075 15.30236135 227.39771579 12.3770643 232.625 9.5 C234.70109968 8.38229166 236.78383526 7.27676205 238.875 6.1875 C239.70515625 5.73761719 240.5353125 5.28773438 241.390625 4.82421875 C250.57251714 1.06496581 259.57942058 -0.03084746 269.4375 0.0625 C270.57606445 0.07079834 271.71462891 0.07909668 272.88769531 0.08764648 C288.5219857 0.40046588 301.08245203 5.26438016 314.46484375 13.1796875 C321.69781271 17.25774293 328.41598752 18.55209374 336.59619141 19.29980469 C342.50942882 19.93299308 345.52973894 21.0971137 349.625 25.5 C351.86392494 29.88488414 351.8685818 33.62597118 350.5625 38.3125 C348.45475171 41.78008589 347.0595498 43.3579736 343.625 45.5 C340.63241896 46.08316391 337.72827154 46.07017398 334.6875 46 C333.8421167 45.98646484 332.9967334 45.97292969 332.12573242 45.95898438 C318.83352118 45.5261035 307.96406327 40.56300957 296.42578125 34.453125 C293.92283278 33.12835401 291.40193332 31.84083097 288.875 30.5625 C288.13765625 30.18222656 287.4003125 29.80195313 286.640625 29.41015625 C277.79630209 25.41649881 263.04375477 25.8221953 254 28.875 C249.82936972 30.71537336 245.87103284 32.98530072 241.86547852 35.15722656 C222.67982639 45.501417 202.59898125 49.00436766 180.9375 44.25 C173.08025244 41.76685602 165.85371535 37.70008119 158.65356445 33.74121094 C146.33712153 26.97177131 134.06532408 25.71808902 120.21484375 28.08203125 C113.49142851 30.10737917 107.59446027 33.676425 101.57006836 37.20288086 C84.91411564 46.83376475 62.52372687 48.90589942 43.9375 44 C35.33212042 40.97357739 26.90724732 36.67913033 19.09375 31.9765625 C12.64083679 28.22751081 6.09101451 27.44866295 -1.24511719 26.75073242 C-7.18335753 26.08639035 -10.26481636 24.92635161 -14.375 20.5 C-16.61392494 16.11511586 -16.6185818 12.37402882 -15.3125 7.6875 C-11.36151221 1.18748782 -7.39313177 -0.18145064 0 0 Z " fill="#46C1F0" transform="translate(88.375,294.5)"/>
</svg>
