<?xml version="1.0" encoding="UTF-8"?>
<svg version="1.1" xmlns="http://www.w3.org/2000/svg" width="512" height="512">
<path d="M0 0 C0.67775482 0.00054382 1.35550964 0.00108765 2.05380249 0.00164795 C13.74818628 0.04458833 24.72340583 1.17848512 36 4.375 C36.74958984 4.57867187 37.49917969 4.78234375 38.27148438 4.9921875 C61.56762589 11.47111441 81.94431871 24.41837801 99 41.375 C99.70552002 42.07447754 99.70552002 42.07447754 100.42529297 42.78808594 C120.76555731 63.24770979 138 95.264604 138 124.72558594 C137.9690625 125.92489746 137.9690625 125.92489746 137.9375 127.1484375 C137.7019516 133.85339512 137.7019516 133.85339512 139 140.375 C142.79563864 144.21630046 147.16372269 146.08954757 152 148.375 C155.49837496 150.85198763 158.73602199 153.59924727 162 156.375 C162.73605469 156.96539062 163.47210938 157.55578125 164.23046875 158.1640625 C185.60101127 175.94132796 198.05277666 203.30802968 202 230.375 C203.80231219 265.95701194 196.57765371 297.8821415 172.54785156 325.01464844 C152.6312454 346.99381575 123.60629376 361.93287977 93.79916382 363.54849243 C83.73671632 363.87215116 73.66748222 363.85769371 63.60083008 363.88623047 C59.75584609 363.90197589 55.91126727 363.93495689 52.06640625 363.96875 C50.90266983 363.96572876 49.73893341 363.96270752 48.53993225 363.95959473 C37.79530543 364.05785995 29.76416155 366.03035317 21.375 372.8125 C7.87532438 383.4997432 -4.99743346 385.71586396 -22 384.375 C-31.33408465 382.59961032 -39.0996524 376.93367117 -46.66796875 371.4375 C-53.58043633 366.41785637 -59.2169344 363.61783917 -68 364.375 C-74.58787142 365.97602705 -79.65107812 368.81414971 -85.0625 372.8125 C-95.48306468 380.40506482 -104.68097328 384.77403802 -117.8125 384.6875 C-118.70179199 384.68186035 -119.59108398 384.6762207 -120.50732422 384.67041016 C-135.60219636 384.39061899 -145.45252936 377.68789853 -156.9453125 368.328125 C-164.2525452 363.65598133 -172.33080993 364.08190868 -180.72265625 364.06640625 C-183.22591366 364.04123327 -185.72916881 364.01583545 -188.23242188 363.99023438 C-192.13988591 363.96161633 -196.04731064 363.93757336 -199.95483398 363.91870117 C-232.31601645 363.73223453 -260.34452902 357.93443066 -284 334.375 C-302.87663899 314.63125829 -310.66622254 290.23814311 -310.47485352 263.34057617 C-310.1196879 249.35925045 -307.11134657 237.00869014 -301 224.375 C-300.55914062 223.45332031 -300.11828125 222.53164063 -299.6640625 221.58203125 C-288.52068422 199.75701689 -268.13729693 183.08743231 -245 175.375 C-244.1188459 173.43662407 -244.1188459 173.43662407 -243.60546875 171.02734375 C-243.37569336 170.12024658 -243.14591797 169.21314941 -242.90917969 168.27856445 C-242.67102539 167.29976318 -242.43287109 166.32096191 -242.1875 165.3125 C-231.06307689 122.47933556 -205.5868506 87.25595553 -167.48828125 64.37890625 C-146.0031521 51.92349436 -121.35354107 43.13833088 -96.27734375 42.84375 C-93.15937787 42.20197315 -92.0479076 40.76140473 -90 38.375 C-89.47019531 37.76140625 -88.94039062 37.1478125 -88.39453125 36.515625 C-87.87246094 35.89171875 -87.35039062 35.2678125 -86.8125 34.625 C-79.03106432 25.76007328 -70.38285829 19.77708747 -60 14.375 C-58.98164063 13.83875 -57.96328125 13.3025 -56.9140625 12.75 C-50.44439687 9.55674601 -43.82242393 7.22690331 -36.9375 5.125 C-36.13489746 4.87862793 -35.33229492 4.63225586 -34.50537109 4.37841797 C-23.05181512 1.02824706 -11.91263854 -0.01624686 0 0 Z " fill="#BADDFA" transform="translate(310,63.625)"/>
<path d="M0 0 C0.67775482 0.00054382 1.35550964 0.00108765 2.05380249 0.00164795 C13.74818628 0.04458833 24.72340583 1.17848512 36 4.375 C36.74958984 4.57867187 37.49917969 4.78234375 38.27148438 4.9921875 C61.56762589 11.47111441 81.94431871 24.41837801 99 41.375 C99.70552002 42.07447754 99.70552002 42.07447754 100.42529297 42.78808594 C120.76555731 63.24770979 138 95.264604 138 124.72558594 C137.9690625 125.92489746 137.9690625 125.92489746 137.9375 127.1484375 C137.7019516 133.85339512 137.7019516 133.85339512 139 140.375 C142.79563864 144.21630046 147.16372269 146.08954757 152 148.375 C155.49837496 150.85198763 158.73602199 153.59924727 162 156.375 C162.73605469 156.96539062 163.47210938 157.55578125 164.23046875 158.1640625 C185.60101127 175.94132796 198.05277666 203.30802968 202 230.375 C203.80231219 265.95701194 196.57765371 297.8821415 172.54785156 325.01464844 C152.17062904 347.50213349 123.13019462 361.72024178 92.80078125 363.6953125 C85.72080909 363.90334302 81.74077042 363.86155518 76 359.375 C73.4748361 356.30088742 73.90757331 353.33818598 74.22265625 349.47265625 C75.44053847 346.18621025 77.29651637 344.56212932 80 342.375 C83.171875 341.5546875 83.171875 341.5546875 86.75 341.25 C88.09403601 341.10682661 89.43777971 340.96088805 90.78125 340.8125 C91.47605469 340.74160156 92.17085938 340.67070312 92.88671875 340.59765625 C119.37337636 337.80701025 141.60367095 326.20719219 159.06640625 305.86328125 C176.97320538 282.81958217 181.31867112 257.16177647 178.6171875 228.53515625 C175.80279041 206.37177918 161.77984303 185.5498674 145 171.375 C123.16654149 154.58439047 98.0472441 149.61884797 71 151.375 C66.6115799 152.03036105 62.49446364 153.15845587 58.26953125 154.5 C54.55521884 155.49403343 51.82578436 155.8602637 48 155.375 C42.90075511 152.12889533 40.67738703 148.49517686 38.25 143 C31.77707133 129.31181264 23.09616439 117.60168358 13 106.375 C12.40832031 105.71113281 11.81664062 105.04726562 11.20703125 104.36328125 C-10.01094022 81.88794851 -44.35790154 66.77578014 -75.17651367 65.26855469 C-113.09993312 64.24370732 -146.60082318 73.9732188 -176 98.375 C-176.99644531 99.19355469 -177.99289063 100.01210937 -179.01953125 100.85546875 C-201.58285109 120.40246012 -216.82780783 149.36308446 -221.765625 178.6796875 C-221.88204346 179.35652588 -221.99846191 180.03336426 -222.1184082 180.73071289 C-222.41709612 182.56237596 -222.67679885 184.40027677 -222.93359375 186.23828125 C-224.30094954 190.26021056 -226.45538062 192.23994264 -230 194.375 C-232.55955872 195.46103877 -234.99754809 196.39208895 -237.625 197.25 C-249.53747006 201.46141014 -259.02373455 207.43006532 -268 216.375 C-268.62519531 216.97699219 -269.25039063 217.57898438 -269.89453125 218.19921875 C-275.75317241 224.29590854 -279.44794177 231.78989661 -283 239.375 C-283.46019531 240.33535156 -283.92039062 241.29570312 -284.39453125 242.28515625 C-287.4009395 250.00833222 -287.37535716 257.73242548 -287.4375 265.9375 C-287.4478125 267.07348633 -287.458125 268.20947266 -287.46875 269.37988281 C-287.3555483 280.24410155 -285.26835519 289.99928112 -280.1875 299.625 C-279.8371167 300.3061084 -279.4867334 300.9872168 -279.12573242 301.68896484 C-276.52689962 306.63308579 -273.63981438 311.12699041 -270 315.375 C-268.87658203 316.80972656 -268.87658203 316.80972656 -267.73046875 318.2734375 C-265.01085093 321.52727499 -261.96236794 323.95090619 -258.5 326.375 C-257.88906494 326.80433838 -257.27812988 327.23367676 -256.64868164 327.67602539 C-245.68835498 335.17638551 -234.02766664 339.50513071 -220.80078125 340.8203125 C-219.72920776 340.93101074 -219.72920776 340.93101074 -218.63598633 341.04394531 C-216.60340074 341.24002512 -214.56728017 341.3983781 -212.53125 341.5546875 C-208.22781182 342.55438 -206.64370241 343.87334133 -204 347.375 C-203.08981752 350.80156933 -203.2835457 353.91213753 -204 357.375 C-206.66315459 360.9998493 -208.64734704 362.58003083 -213 363.375 C-236.14867538 365.26468779 -259.89898847 355.36963106 -277.375 340.5625 C-295.70371163 324.45802176 -308.4299467 301.87057953 -310.22753906 277.25976562 C-311.10261785 258.27220699 -309.34205148 241.62011813 -301 224.375 C-300.55914062 223.45332031 -300.11828125 222.53164063 -299.6640625 221.58203125 C-288.52068422 199.75701689 -268.13729693 183.08743231 -245 175.375 C-244.1188459 173.43662407 -244.1188459 173.43662407 -243.60546875 171.02734375 C-243.37569336 170.12024658 -243.14591797 169.21314941 -242.90917969 168.27856445 C-242.67102539 167.29976318 -242.43287109 166.32096191 -242.1875 165.3125 C-231.06307689 122.47933556 -205.5868506 87.25595553 -167.48828125 64.37890625 C-146.0031521 51.92349436 -121.35354107 43.13833088 -96.27734375 42.84375 C-93.15937787 42.20197315 -92.0479076 40.76140473 -90 38.375 C-89.47019531 37.76140625 -88.94039062 37.1478125 -88.39453125 36.515625 C-87.87246094 35.89171875 -87.35039062 35.2678125 -86.8125 34.625 C-79.03106432 25.76007328 -70.38285829 19.77708747 -60 14.375 C-58.98164063 13.83875 -57.96328125 13.3025 -56.9140625 12.75 C-50.44439687 9.55674601 -43.82242393 7.22690331 -36.9375 5.125 C-36.13489746 4.87862793 -35.33229492 4.63225586 -34.50537109 4.37841797 C-23.05181512 1.02824706 -11.91263854 -0.01624686 0 0 Z " fill="#040404" transform="translate(310,63.625)"/>
<path d="M0 0 C20.78489777 16.32701085 34.99283499 35.70317565 43.8125 60.6875 C44.14121094 61.60660156 44.46992188 62.52570313 44.80859375 63.47265625 C47.39735818 71.68486111 47.52208384 80.14525924 47.8125 88.6875 C43.99252148 88.17540143 40.29229336 87.58592004 36.5625 86.625 C21.06873212 83.52624642 4.34643068 86.1116851 -11.1875 87.6875 C-11.50388428 87.13924561 -11.82026855 86.59099121 -12.14624023 86.02612305 C-18.18574437 75.61510588 -24.09444587 65.64714251 -32.1875 56.6875 C-33.33025391 55.38425781 -33.33025391 55.38425781 -34.49609375 54.0546875 C-58.4631807 26.97551675 -89.41194003 9.80380142 -124.91772461 3.08105469 C-126.09347046 2.85144043 -126.09347046 2.85144043 -127.29296875 2.6171875 C-127.99574951 2.48554199 -128.69853027 2.35389648 -129.42260742 2.21826172 C-131.1875 1.6875 -131.1875 1.6875 -133.1875 -0.3125 C-92.90306129 -28.07099605 -40.19346257 -29.19369525 0 0 Z " fill="#FDBF07" transform="translate(378.1875,107.3125)"/>
<path d="M0 0 C8.49130338 2.88115909 15.30723984 7.68651941 22.25 13.25 C28.37048928 18.05587715 33.64011265 18.97032131 41.35546875 18.80859375 C49.77235291 17.79515396 56.11512783 12.2948445 62.70703125 7.3671875 C75.23402957 -1.4859415 89.06745827 -3.43447372 103.97265625 -0.98046875 C112.7303395 1.34994757 119.33405392 6.04003758 126.4375 11.4375 C134.55922729 17.5471538 141.21237315 19.65724863 151.4375 18.4375 C158.78795732 16.14326635 164.60048883 11.15230616 170.62109375 6.5234375 C179.87730713 -0.33206589 190.93011607 -3.2134173 202.4375 -1.5625 C205.66083089 0.07968941 207.7974692 2.1574384 209.4375 5.4375 C209.92851377 10.34763773 209.9835876 12.48625062 207.5 16.8125 C204.11044925 20.3448689 200.09818913 20.68939581 195.4375 21.4375 C187.53728114 22.79259757 182.15355386 26.46335188 175.96630859 31.32592773 C163.25309109 41.25780878 150.1908544 42.67984804 134.4375 41.4375 C125.10341535 39.66211032 117.3378476 33.99617117 109.76953125 28.5 C102.85706367 23.48035637 97.2205656 20.68033917 88.4375 21.4375 C81.84962858 23.03852705 76.78642188 25.87664971 71.375 29.875 C60.95443532 37.46756482 51.75652672 41.83653802 38.625 41.75 C37.73570801 41.74436035 36.84641602 41.7387207 35.93017578 41.73291016 C23.94961913 41.51084442 14.94900254 37.8101784 5.66796875 30.15234375 C-1.3051754 24.41140178 -6.44957695 22.23164122 -15.21484375 21.0703125 C-18.68495947 20.4143513 -20.74030969 19.52763737 -23.5625 17.4375 C-26.37975233 13.2116215 -26.36208384 9.40125312 -25.5625 4.4375 C-19.01320984 -4.00763731 -9.53245122 -2.66817415 0 0 Z " fill="#000000" transform="translate(153.5625,470.5625)"/>
<path d="M0 0 C10.75377008 2.42686433 20.14499173 10.27380895 28.90625 16.6171875 C32.93421711 19.27744936 36.53032145 19.1935895 41.25 19.25 C43.17585938 19.28867187 43.17585938 19.28867187 45.140625 19.328125 C52.2974548 18.71964959 57.27188794 15.32533103 62.8125 11.125 C77.18160445 0.5341033 89.30147754 -1.36330588 107 0 C115.97846675 1.94079988 122.87275056 7.44411264 130 13 C138.36603044 19.22481607 145.78225587 20.12217999 156 19 C162.20741501 17.25920646 166.84260601 13.39457881 171.875 9.5 C180.49856877 2.93644511 188.10161395 -0.39218192 198.9375 -0.625 C200.02067505 -0.65992554 200.02067505 -0.65992554 201.12573242 -0.69555664 C204.97756413 -0.63748883 206.8637026 -0.10235773 209.96484375 2.2265625 C212.11809442 5.16093481 212.68094506 6.41951594 212.625 10 C212.63789063 10.825 212.65078125 11.65 212.6640625 12.5 C211.68342457 16.19181338 209.98390614 17.6614781 207 20 C203.50390625 21.01171875 203.50390625 21.01171875 199.5625 21.6875 C190.33935924 23.57743556 184.26601398 28.26171204 177 34 C168.23451462 40.32069014 159.32165882 42.56339029 148.5625 42.4375 C147.64162598 42.42920166 146.72075195 42.42090332 145.77197266 42.41235352 C132.71713878 42.08788789 123.72005741 36.60636673 113.33203125 29.0625 C106.41956367 24.04285637 100.7830656 21.24283917 92 22 C85.41212858 23.60102705 80.34892188 26.43914971 74.9375 30.4375 C64.51693532 38.03006482 55.31902672 42.39903802 42.1875 42.3125 C41.29820801 42.30686035 40.40891602 42.3012207 39.49267578 42.29541016 C27.52949408 42.07366647 18.54319561 38.38411525 9.265625 30.75 C2.84836794 25.47744284 -2.38182563 22.7759195 -10.48095703 21.40380859 C-15.42937298 20.49925944 -17.86028552 18.91437301 -21 15 C-22.21043896 10.83911606 -22.28411902 8.75291539 -20.75 4.6875 C-16.28110207 -2.17545039 -7.34207765 -0.71984763 0 0 Z " fill="#010101" transform="translate(150,406)"/>
<path d="M0 0 C10.75377008 2.42686433 20.14499173 10.27380895 28.90625 16.6171875 C32.93421711 19.27744936 36.53032145 19.1935895 41.25 19.25 C43.17585938 19.28867187 43.17585938 19.28867187 45.140625 19.328125 C52.2974548 18.71964959 57.27188794 15.32533103 62.8125 11.125 C77.18160445 0.5341033 89.30147754 -1.36330588 107 0 C115.97846675 1.94079988 122.87275056 7.44411264 130 13 C138.36603044 19.22481607 145.78225587 20.12217999 156 19 C162.20741501 17.25920646 166.84260601 13.39457881 171.875 9.5 C180.49856877 2.93644511 188.10161395 -0.39218192 198.9375 -0.625 C200.02067505 -0.65992554 200.02067505 -0.65992554 201.12573242 -0.69555664 C204.97756413 -0.63748883 206.8637026 -0.10235773 209.96484375 2.2265625 C212.11809442 5.16093481 212.68094506 6.41951594 212.625 10 C212.63789063 10.825 212.65078125 11.65 212.6640625 12.5 C211.68511174 16.18546168 209.97869871 17.66988891 207 20 C203.6171875 20.8984375 203.6171875 20.8984375 199.875 21.375 C192.2972376 22.58330345 187.10215904 25.44907894 181 30 C166.99353711 40.14991789 154.40249435 44.22446902 137.015625 41.5390625 C128.42945044 39.21477958 121.36237544 34.05175169 114.3125 28.8125 C105.64366964 22.49801771 98.73991505 20.75200987 88 22 C81.05874497 24.10873571 75.8709659 28.58372262 70.36328125 33.140625 C59.62093334 41.59245575 46.24163565 43.13424369 33 42 C23.20092324 40.22480494 15.78998496 34.83988163 8 29 C2.03618862 24.59334718 -2.55160303 22.05204608 -10 21.1875 C-13.94992696 20.55590036 -15.83307582 20.11455581 -19.1875 17.8125 C-21.42412727 14.34187148 -22 12.13022069 -22 8 C-18.18014974 -2.12260318 -9.28721951 -0.91055738 0 0 Z " fill="#020203" transform="translate(150,342)"/>
<path d="M0 0 C5.2606837 1.57485436 8.72882923 5.89103782 12.453125 9.734375 C13.37222656 10.60835937 14.29132813 11.48234375 15.23828125 12.3828125 C23.00388595 19.82438477 23.00388595 19.82438477 24.453125 24.734375 C24.37294999 29.22417538 23.94533691 31.15381737 21.015625 34.609375 C17.00058951 37.93891663 14.68167615 38.1700876 9.453125 37.734375 C4.37535845 34.82872457 0.39002796 31.03747454 -3.734375 26.921875 C-4.34990234 26.33083984 -4.96542969 25.73980469 -5.59960938 25.13085938 C-9.49356614 21.26221544 -11.87366465 17.99214085 -13.546875 12.734375 C-12.97424042 8.58277427 -11.88598432 6.21734888 -9.484375 2.796875 C-6.07486203 0.40296164 -4.12145127 -0.24564941 0 0 Z " fill="#000000" transform="translate(175.546875,55.265625)"/>
<path d="M0 0 C3.02508145 1.73602105 5.41790069 3.83580137 7 7 C7.9076677 13.58059086 7.9076677 13.58059086 5.68359375 17.05859375 C3.87032988 19.13958786 1.98031196 21.0775919 0 23 C-0.60972656 23.62132813 -1.21945312 24.24265625 -1.84765625 24.8828125 C-3.5468148 26.60811195 -5.2713064 28.30439144 -7 30 C-7.9075 30.928125 -8.815 31.85625 -9.75 32.8125 C-12.86004362 35.83615352 -14.43913577 36.93563853 -18.8125 37.4375 C-23.64484674 37.33942654 -25.69263085 35.38803669 -29 32 C-30.62465331 28.75069338 -30.54912146 25.51182328 -30 22 C-27.65540101 16.85064707 -23.31889266 13.33655408 -19.0625 9.7734375 C-16.36676516 7.45551398 -13.91141686 4.94067888 -11.4453125 2.3828125 C-8.19960173 -0.72254321 -4.24874872 -0.72520386 0 0 Z " fill="#000000" transform="translate(449,56)"/>
<path d="M0 0 C2.16454172 -0.00436595 4.32703094 -0.04067115 6.49121094 -0.07861328 C7.8740165 -0.08448341 9.2568317 -0.08845149 10.63964844 -0.09033203 C12.51982666 -0.10265869 12.51982666 -0.10265869 14.43798828 -0.11523438 C18.37900967 0.45364946 20.00514816 1.59659716 22.80371094 4.37060547 C24.54847665 7.86013689 24.37860227 11.56354734 23.80371094 15.37060547 C22.24418046 18.38985647 20.29378678 20.84337864 16.98486328 22.01416016 C12.18170986 22.79909456 7.28324811 22.59848913 2.42871094 22.62060547 C1.30464844 22.64123047 0.18058594 22.66185547 -0.97753906 22.68310547 C-11.38002975 22.73228982 -11.38002975 22.73228982 -16.19628906 19.37060547 C-18.63969097 16.43852318 -19.16288441 14.68238225 -19.57128906 10.87060547 C-19.17170442 7.14114882 -18.46859103 5.31618209 -16.19628906 2.37060547 C-11.3432181 -0.86477517 -5.67939717 -0.00128551 0 0 Z " fill="#000000" transform="translate(488.1962890625,191.62939453125)"/>
<path d="M0 0 C2.87029869 1.79393668 4.49131638 2.98263276 6 6 C6.28155398 10.36978912 6.31364613 14.74321887 6.35009766 19.12084961 C6.36664004 20.57674158 6.39390836 22.0325529 6.43212891 23.48803711 C6.48708123 25.59271123 6.50879616 27.69548507 6.5234375 29.80078125 C6.54325684 31.06059814 6.56307617 32.32041504 6.58349609 33.6184082 C5.84768455 37.8827286 4.30413546 39.30733809 1 42 C-2.10953379 43.5547669 -4.56266761 43.28644437 -8 43 C-11.35953827 41.28853711 -13.43623425 40.11796804 -15.15136719 36.71679688 C-16.07995217 33.74404264 -16.25853278 31.32919511 -16.265625 28.21875 C-16.26820313 27.12949219 -16.27078125 26.04023438 -16.2734375 24.91796875 C-16.26570313 23.79003906 -16.25796875 22.66210938 -16.25 21.5 C-16.25773437 20.37207031 -16.26546875 19.24414062 -16.2734375 18.08203125 C-16.27085937 16.99277344 -16.26828125 15.90351563 -16.265625 14.78125 C-16.26336914 13.79189453 -16.26111328 12.80253906 -16.25878906 11.78320312 C-15.86727457 7.57257554 -14.74722307 4.83779556 -11.9375 1.6875 C-7.90987316 -0.62624308 -4.54578583 -0.83998216 0 0 Z " fill="#000000" transform="translate(314,0)"/>
<path d="M0 0 C0.66 0.33 1.32 0.66 2 1 C-4.27 7.27 -10.54 13.54 -17 20 C-17.66 19.67 -18.32 19.34 -19 19 C-12.98348207 12.26459665 -7.02537494 5.71692402 0 0 Z " fill="#343E46" transform="translate(122,142)"/>
</svg>
